<?xml version="1.0" encoding="UTF-8" standalone="no"?><svg xmlns="http://www.w3.org/2000/svg" xmlns:xlink="http://www.w3.org/1999/xlink" data-name="Layer 1" fill="#000000" height="200" preserveAspectRatio="xMidYMid meet" version="1" viewBox="0.0 0.0 200.0 200.0" width="200" zoomAndPan="magnify"><g id="change1_1"><path d="M100,0C44.77,0,0,44.77,0,100s44.77,100,100,100,100-44.77,100-100S155.23,0,100,0Zm-30.18,149.02h-21.02V82.42h21.02v66.6Zm-11.05-74.93h-.15c-7.61,0-12.54-5.09-12.54-11.55s5.08-11.56,12.84-11.56,12.52,4.97,12.68,11.55c0,6.45-4.92,11.56-12.82,11.56Zm95.15,74.93h-23.84v-34.47c0-9.02-3.73-15.18-11.93-15.18-6.27,0-9.76,4.16-11.38,8.16-.61,1.44-.51,3.44-.51,5.44v36.04h-23.61s.3-61.05,0-66.6h23.61v10.45c1.39-4.57,8.94-11.09,20.98-11.09,14.94,0,26.68,9.58,26.68,30.21v37.03Z" fill="#bf1e2e"/></g></svg>