<?xml version="1.0" encoding="UTF-8" standalone="no"?><svg xmlns="http://www.w3.org/2000/svg" xmlns:xlink="http://www.w3.org/1999/xlink" fill="#bf1e2e" height="115.7" preserveAspectRatio="xMidYMid meet" version="1" viewBox="11.7 11.7 115.7 115.7" width="115.7" zoomAndPan="magnify"><g id="change1_1"><path d="M69.5,11.666c-31.941,0-57.834,25.893-57.834,57.834c0,31.941,25.893,57.834,57.834,57.834 c31.941,0,57.834-25.893,57.834-57.834C127.334,37.559,101.441,11.666,69.5,11.666z M99.325,91.578 c-2.481,3.84-4.638,7.82-15.011,8.057c-10.602,0.01-21.565-8.769-29.551-17.527c-7.973-7.756-15.346-17.772-15.337-27.485 c0.238-10.374,4.219-12.531,8.059-15.012c0,0,2.103-0.885,3.93,0.708c1.827,1.59,9.844,9.608,9.844,9.608s2.849,2.378,0.884,5.01 c-1.564,2.096-5.172,5.96-5.645,6.468l1.353,2.551c1.814,2.984,5.265,8.229,10.433,12.479c3.487,2.866,9.382,6.01,9.381,6.008 c0.849-0.791,4.372-4.055,6.335-5.521c2.633-1.967,5.009,0.883,5.009,0.883s8.019,8.02,9.61,9.848 C100.21,89.477,99.325,91.578,99.325,91.578z" fill="inherit"/></g></svg>